<?xml version="1.0" encoding="utf-8"?>
<!-- Generator: Adobe Illustrator 26.1.0, SVG Export Plug-In . SVG Version: 6.00 Build 0)  -->
<svg version="1.0" id="Livello_1" xmlns="http://www.w3.org/2000/svg" xmlns:xlink="http://www.w3.org/1999/xlink" x="0px" y="0px"
	 viewBox="0 0 409.4 242.4" style="enable-background:new 0 0 409.4 242.4;" xml:space="preserve">
<style type="text/css">
	.st0{fill:#72C5C6;}
	.st1{enable-background:new    ;}
	.st2{fill:#55575C;}
</style>
<g>
	<path class="st0" d="M148.1,95.8c-3.3-2.4-8.1-1.8-10.4,1.5l-8.7,11.3V62.1c0-4.2-3.3-7.5-7.5-7.5c-4.2,0-7.5,3.3-7.5,7.5v67.8
		c0,0,0,0,0,0.3c-0.3,2.4,0.9,4.8,3,6.3c1.5,1.2,3,1.5,4.5,1.5c2.1,0,4.5-0.9,6-3l22.1-28.7C152,103,151.4,98.2,148.1,95.8z"/>
	<g class="st1">
		<path class="st2" d="M191.4,223.4h-22.7v-4.8c4.2,0,6.9-0.6,7.5-1.5l-1.2-20c-0.6-12.2-0.9-20.9-0.9-26h-0.3
			c-2.1,7.5-4.8,14.9-7.5,23l-10.7,29.3h-6l-9.9-28.7c-3-8.7-5.1-16.4-6.9-23.3h-0.3c-0.3,9.3-0.6,18.2-1.2,26.6l-1.2,19.4
			c0.6,1.2,3.3,1.5,7.5,1.5v4.8h-22.4v-4.8c5.1,0,7.8-0.9,7.8-2.4l3.3-46.6c-0.9-0.9-3.3-1.5-7.5-1.5v-4.8h17.6l10.1,29.3
			c2.4,6.6,4.5,13.4,6,20.3h0.3c1.8-6.9,3.9-13.7,6.3-20.3l10.7-29.3h17.9v4.8c-4.2,0-6.6,0.6-7.5,1.5l3,46.6c0,1.2,0.9,1.8,2.4,2.1
			c0.9,0.3,2.7,0.3,5.4,0.3v4.5H191.4z"/>
		<path class="st2" d="M222.4,223.4h-23.6v-4.8c2.7,0,4.5,0,5.4-0.3c1.5-0.3,2.4-1.2,2.4-2.7v-27.8c0-1.2-0.9-2.1-2.4-2.7
			c-0.9-0.3-2.7-0.3-5.4-0.3v-4.8h15.5v35.5c0,1.2,0.9,2.1,2.4,2.7c0.9,0.3,2.7,0.3,5.4,0.3v4.8H222.4z M215.6,167
			c0,1.5-0.6,2.7-1.5,3.6c-0.9,0.9-2.1,1.5-3.6,1.5l0,0c-1.5,0-2.7-0.6-3.6-1.5c-0.9-0.9-1.5-2.1-1.5-3.6c0-1.5,0.6-2.7,1.5-3.6
			c0.9-0.9,2.1-1.5,3.6-1.5c1.5,0,2.7,0.6,3.6,1.5C215,164.3,215.6,165.5,215.6,167z"/>
		<path class="st2" d="M256.2,186.7c-0.6-0.3-1.5-0.3-2.7-0.3c-2.7,0-5.1,0.9-6.9,2.7s-3,4.2-3.6,7.2c-0.3,1.2-0.3,2.4-0.3,3.6v15.2
			c0,1.2,0.9,2.1,2.4,2.7c0.9,0.3,2.7,0.3,5.4,0.3v4.8h-23.6V218c2.7,0,4.5,0,5.4-0.3c1.5-0.3,2.4-1.2,2.4-2.7V193
			c0-2.4,0-4.5,0-6.3c-0.3-1.5-3-2.4-7.8-2.4v-4.8h14.3l0.3,8.4h0.3c0.9-3,2.7-5.1,4.8-6.9s4.5-2.7,7.2-2.7c0.9,0,1.5,0,2.1,0.3v8.1
			H256.2z"/>
		<path class="st2" d="M288.7,186.7c-0.6-0.3-1.5-0.3-2.7-0.3c-2.7,0-5.1,0.9-6.9,2.7c-1.8,1.8-3,4.2-3.6,7.2
			c-0.3,1.2-0.3,2.4-0.3,3.6v15.2c0,1.2,0.9,2.1,2.4,2.7c0.9,0.3,2.7,0.3,5.4,0.3v4.8h-23.6V218c2.7,0,4.5,0,5.4-0.3
			c1.5-0.3,2.4-1.2,2.4-2.7V193c0-2.4,0-4.5,0-6.3c-0.3-1.5-3-2.4-7.8-2.4v-4.8h14.3l0.3,8.4h0.3c0.9-3,2.7-5.1,4.8-6.9
			c2.1-1.8,4.5-2.7,7.2-2.7c0.9,0,1.5,0,2.1,0.3v8.1H288.7z"/>
		<path class="st2" d="M335.9,201.3c0,7.5-2.4,13.1-6.9,17.6c-3.9,3.6-9,5.7-14.6,5.7l0,0c-6.3,0-11.3-2.1-15.2-6.6
			c-3.6-4.2-5.4-9.6-5.4-15.8c0-6.6,1.8-12.2,5.7-16.4c3.9-4.5,9.3-6.6,15.8-6.6c6.3,0,11.6,2.1,15.2,6.6
			C334.1,189.4,335.9,194.8,335.9,201.3z M327.5,201.6c0-4.5-0.9-8.1-3-11c-2.4-3.6-5.7-5.7-10.1-5.7c-4.2,0-7.8,1.8-10.1,5.4
			c-2.1,3.3-3.3,6.9-3.3,11.3s1.2,8.1,3.3,11.3c2.4,3.6,5.7,5.4,9.9,5.4l0,0c4.2,0,7.5-1.8,9.9-5.4
			C326.6,209.7,327.5,206.1,327.5,201.6z"/>
		<path class="st2" d="M370.8,186.7c-0.6-0.3-1.5-0.3-2.7-0.3c-2.7,0-5.1,0.9-6.9,2.7s-3,4.2-3.6,7.2c-0.3,1.2-0.3,2.4-0.3,3.6v15.2
			c0,1.2,0.9,2.1,2.4,2.7c0.9,0.3,2.7,0.3,5.4,0.3v4.8h-23.6V218c2.7,0,4.5,0,5.4-0.3c1.5-0.3,2.4-1.2,2.4-2.7V193
			c0-2.4,0-4.5,0-6.3c-0.3-1.5-3-2.4-7.8-2.4v-4.8h14.3l0.3,8.4h0.3c0.9-3,2.7-5.1,4.8-6.9s4.5-2.7,7.2-2.7c0.9,0,1.5,0,2.1,0.3v8.1
			H370.8z"/>
	</g>
	<path class="st2" d="M73.6,106.2l22.1,28.7c1.5,2.1,3.9,3,6,3c1.5,0,3-0.3,4.5-1.5c2.1-1.5,3.3-3.9,3-6.3c0-0.3,0-0.3,0-0.3V62.1
		c0-4.2-3.3-7.5-7.5-7.5s-7.5,3.3-7.5,7.5v46.6l-8.7-11.3c-2.4-3.3-7.2-3.9-10.4-1.5C71.8,98.2,71.2,103,73.6,106.2z"/>
	<g>
		<path class="st0" d="M228.1,156c-3,1.2-6.3,1.8-9.9,1.8c-5.1,0-9-1.5-11.9-4.2c-3-2.7-4.5-6.9-4.5-11.6s1.5-8.7,4.5-11.6
			c3.3-3,7.5-4.8,12.5-4.8c3.3,0,6,0.6,8.1,1.5v6.6h-2.7c0-2.4-0.3-3.6-0.9-3.9c-1.2-0.3-2.7-0.6-4.5-0.6c-3.9,0-6.9,1.2-9.3,3.3
			c-2.4,2.4-3.6,5.4-3.6,9.3c0,3.9,1.2,7.2,3.3,9.3c2.1,2.4,5.1,3.3,9,3.3c2.4,0,4.2-0.3,5.4-0.9V144h-6v-3.3h10.4L228.1,156
			L228.1,156z"/>
		<path class="st0" d="M263.9,157.4h-11.3v-2.7c1.5,0,2.7,0,3.3-0.3l-2.4-7.2h-11.3l-2.4,7.2c0.6,0.3,1.5,0.3,3.3,0.3v2.7h-11v-2.7
			c2.1,0,3.3-0.3,3.9-0.6l9.6-28.4h4.8l9.6,28.4c0.3,0.6,1.8,0.6,3.9,0.6L263.9,157.4L263.9,157.4z M252.6,144.3l-3.3-9.3
			c-0.3-0.9-0.9-3-1.5-5.7l0,0c-0.3,1.2-0.9,3.3-1.5,5.7l-3,9.3H252.6z"/>
		<path class="st0" d="M296.2,157.4H289c-0.6-0.9-1.2-3.3-2.1-7.5c-0.6-2.1-1.2-3.9-2.1-4.8c-0.9-0.9-2.4-1.5-4.2-1.5h-3.9v9.6
			c0,0.6,0.3,1.2,1.2,1.5c0.6,0,1.5,0.3,2.7,0.3v2.7h-12.2v-2.7c1.5,0,2.4,0,2.7-0.3c0.9-0.3,1.2-0.6,1.2-1.2V130
			c0-0.6-0.3-1.2-1.2-1.5c-0.6,0-1.5-0.3-2.7-0.3v-2.7c1.5,0,3.3,0,6,0c2.7,0,4.5,0,6,0c4.2,0,7.2,0.9,9.3,2.7
			c1.8,1.5,2.4,3.6,2.4,6c0,2.1-0.6,3.6-1.8,5.1c-1.2,1.2-2.4,2.4-4.2,3l0,0c2.4,0.9,3.9,3,4.8,6.3c0.6,2.1,0.9,3.6,1.2,4.5l0.3,0.6
			c0.3,0.6,1.8,0.9,3.9,0.9L296.2,157.4L296.2,157.4z M288.1,134.5c0-3.9-2.4-6-7.2-6c-1.8,0-3,0-4.2,0.3v11.6h4.2
			c2.1,0,3.9-0.6,5.1-1.8C287.5,137.7,288.1,136.2,288.1,134.5z"/>
		<path class="st0" d="M328.4,157.4h-7.2c-0.6-0.9-1.2-3.3-2.1-7.5c-0.6-2.1-1.2-3.9-2.1-4.8c-0.9-0.9-2.4-1.5-4.2-1.5H309v9.6
			c0,0.6,0.3,1.2,1.2,1.5c0.6,0,1.5,0.3,2.7,0.3v2.7h-12.2v-2.7c1.5,0,2.4,0,2.7-0.3c0.9-0.3,1.2-0.6,1.2-1.2V130
			c0-0.6-0.3-1.2-1.2-1.5c-0.6,0-1.5-0.3-2.7-0.3v-2.7c1.5,0,3.3,0,6,0c2.7,0,4.5,0,6,0c4.2,0,7.2,0.9,9.3,2.7
			c1.8,1.5,2.4,3.6,2.4,6c0,2.1-0.6,3.6-1.8,5.1c-1.2,1.2-2.4,2.4-4.2,3l0,0c2.4,0.9,3.9,3,4.8,6.3c0.6,2.1,0.9,3.6,1.2,4.5l0.3,0.6
			c0.3,0.6,1.8,0.9,3.9,0.9L328.4,157.4L328.4,157.4z M320.3,134.5c0-3.9-2.4-6-7.2-6c-1.8,0-3,0-4.2,0.3v11.6h4.2
			c2.1,0,3.9-0.6,5.1-1.8C319.7,137.7,320.3,136.2,320.3,134.5z"/>
	</g>
	<g>
		<path class="st2" d="M183.8,129.4c-0.7,0-1.4-0.1-2-0.3c-4-1.1-6.3-5.3-5.1-9.2c1.7-6.1,2.6-12.4,2.6-18.9c0-33.6-24-62.1-57-67.8
			l-1.4-0.2c-4.1-0.6-6.9-4.4-6.3-8.5s4.4-6.9,8.5-6.3c0.6,0.1,1.2,0.2,1.7,0.3c40.2,6.9,69.4,41.6,69.4,82.5
			c0,7.8-1.1,15.5-3.2,22.9C190,127.2,187,129.4,183.8,129.4z"/>
	</g>
	<g>
		<path class="st0" d="M87.8,181.3c-0.7,0-1.5-0.1-2.2-0.3C50.4,170,26.7,137.9,26.7,101c0-42.6,31.9-78.3,74.1-83.1
			c4.1-0.5,7.8,2.5,8.3,6.6c0.5,4.1-2.5,7.8-6.6,8.3C67.8,36.7,41.7,66,41.7,101c0,30.3,19.4,56.7,48.3,65.7
			c3.9,1.2,6.1,5.4,4.9,9.3C93.9,179.2,90.9,181.3,87.8,181.3z"/>
	</g>
	<circle class="st2" cx="121.5" cy="62.1" r="7.5"/>
	<circle class="st0" cx="101.7" cy="62.1" r="7.5"/>
</g>
</svg>
